<svg width="484" height="68" viewBox="0 0 484 68" fill="none" xmlns="http://www.w3.org/2000/svg">
<path d="M104.491 45.8024C102.798 45.9776 101.571 46.0944 100.695 46.0944C96.9576 46.0944 95.0304 44.8096 95.0304 41.1304V27.64H103.557V22.3256H95.0304V14.792H88.84V22.3256H84.168V27.64H88.84V41.656C88.84 48.372 92.8112 51.6424 99.4104 51.6424C100.87 51.6424 102.564 51.4088 104.491 51V45.8024Z" fill="#211414"/>
<path d="M113.627 38.9696C113.627 46.6784 119 51.6424 126.183 51.6424C133.191 51.6424 138.622 46.6784 138.622 38.9696V22.3256H132.49V39.4368C132.49 43.408 129.746 45.9776 126.183 45.9776C122.446 45.9776 119.701 43.408 119.701 39.4368V22.3256H113.627V38.9696Z" fill="#211414"/>
<path d="M166.848 22.3256C166.147 22.1504 165.388 22.0336 164.512 22.0336C161.241 22.0336 158.205 23.4936 156.161 26.0632V22.3256H150.437V51H156.569V35.6992C156.569 30.6184 160.132 27.7568 164.979 27.7568H166.848V22.3256Z" fill="#211414"/>
<path d="M182.733 17.0696C182.733 13.3904 184.601 12.1056 188.339 12.1056C189.04 12.1056 189.857 12.164 190.792 12.2808V7.08322C189.682 6.73282 188.397 6.55762 186.821 6.55762C180.513 6.55762 176.601 9.82802 176.601 16.544V22.3256H172.513V27.64H176.601V51H182.733V27.64H189.507V22.3256H182.733V17.0696Z" fill="#211414"/>
<path d="M194.895 46.0944C197.465 49.4232 201.553 51.6424 206.458 51.6424C209.495 51.6424 212.006 50.8832 214.05 49.3648C216.094 47.788 217.087 45.6272 217.087 42.8824C217.087 38.8528 214.693 36.5168 209.262 34.2392L206.517 33.1296C203.714 31.9616 202.721 31.2024 202.721 29.7424C202.721 27.932 204.239 26.9976 206.634 26.9976C209.145 26.9976 211.539 28.0488 213.35 29.9176L216.678 26.1216C214.167 23.1432 210.897 21.6832 206.75 21.6832C200.91 21.6832 196.647 24.8368 196.647 29.976C196.647 34.0056 199.042 36.2248 204.122 38.3272L207.042 39.5536C209.846 40.7216 211.072 41.4224 211.072 43.116C211.072 45.2184 209.086 46.328 206.458 46.328C203.422 46.328 200.91 44.868 198.399 42.24L194.895 46.0944Z" fill="#211414"/>
<path d="M225.56 36.6336C225.56 44.9848 232.276 51.6424 240.744 51.6424C245.941 51.6424 250.263 49.1312 252.833 44.9848L248.511 41.656C246.409 44.5176 243.839 45.9776 240.802 45.9776C235.663 45.9776 231.809 41.8896 231.809 36.6336C231.809 31.436 235.663 27.348 240.802 27.348C243.897 27.348 246.467 28.808 248.511 31.728L252.833 28.3408C250.321 24.1944 246.058 21.6832 240.744 21.6832C232.509 21.5664 225.385 28.3992 225.56 36.6336Z" fill="#211414"/>
<path d="M287.859 33.0712C287.859 26.2968 283.771 21.6832 277.23 21.6832C273.784 21.6832 270.864 22.9096 268.937 25.1872V7.20002H262.805V51H268.937V33.9472C268.937 30.0344 271.682 27.2896 275.478 27.2896C279.274 27.2896 281.727 29.976 281.727 33.9472V51H287.859V33.0712Z" fill="#211414"/>
<path d="M325.421 38.6776C325.713 37.3344 325.888 36.0496 325.888 34.8232C325.888 27.348 320.224 21.6832 312.632 21.6832C304.514 21.508 297.623 28.4576 297.798 36.692C297.798 45.16 304.455 51.6424 313.215 51.6424C317.595 51.6424 321.392 50.124 324.662 47.0288L321.742 42.824C319.172 45.1016 316.369 46.2112 313.391 46.2112C308.485 46.2112 304.806 43.3496 304.047 38.6776H325.421ZM304.164 33.8888C305.098 29.6256 308.368 26.8808 312.398 26.8808C316.428 26.8808 319.698 29.5088 319.756 33.8888H304.164Z" fill="#211414"/>
<path d="M357.91 7.20002V25.8296C355.749 23.2016 352.303 21.6832 348.332 21.6832C340.39 21.508 334.141 28.3408 334.316 36.692C334.316 45.16 340.273 51.6424 348.332 51.6424C352.595 51.6424 356.275 49.8904 358.377 46.912V51H364.1V7.20002H357.91ZM358.027 36.692C358.027 42.9408 353.88 46.036 349.383 46.036C344.303 46.036 340.565 42.1232 340.565 36.6336C340.565 31.144 344.478 27.2896 349.383 27.2896C353.822 27.2896 358.027 30.5016 358.027 36.692Z" fill="#211414"/>
<path d="M375.889 38.9696C375.889 46.6784 381.262 51.6424 388.445 51.6424C395.453 51.6424 400.884 46.6784 400.884 38.9696V22.3256H394.752V39.4368C394.752 43.408 392.007 45.9776 388.445 45.9776C384.707 45.9776 381.962 43.408 381.962 39.4368V22.3256H375.889V38.9696Z" fill="#211414"/>
<path d="M412.699 51H418.831V7.20002H412.699V51Z" fill="#211414"/>
<path d="M456.723 38.6776C457.015 37.3344 457.19 36.0496 457.19 34.8232C457.19 27.348 451.525 21.6832 443.933 21.6832C435.816 21.508 428.925 28.4576 429.1 36.692C429.1 45.16 435.757 51.6424 444.517 51.6424C448.897 51.6424 452.693 50.124 455.964 47.0288L453.044 42.824C450.474 45.1016 447.671 46.2112 444.693 46.2112C439.787 46.2112 436.108 43.3496 435.349 38.6776H456.723ZM435.465 33.8888C436.4 29.6256 439.67 26.8808 443.7 26.8808C447.729 26.8808 451 29.5088 451.058 33.8888H435.465Z" fill="#211414"/>
<path d="M483.839 22.3256C483.138 22.1504 482.379 22.0336 481.503 22.0336C478.232 22.0336 475.196 23.4936 473.152 26.0632V22.3256H467.428V51H473.56V35.6992C473.56 30.6184 477.123 27.7568 481.97 27.7568H483.839V22.3256Z" fill="#211414"/>
<path d="M21.1558 4V14.1212M42.5116 4V14.1212M9.21277 25.8112H54.4546" stroke="#01A966" stroke-width="7.59091" stroke-miterlimit="10" stroke-linecap="round" stroke-linejoin="round"/>
<path d="M39.4242 63.9169H24.2424C11.5909 63.9169 4 54.8078 4 43.6745V28.4927C4 17.3593 11.5909 8.25024 24.2424 8.25024H39.4242C52.0758 8.25024 59.6667 17.3593 59.6667 28.4927V43.6745C59.6667 54.8078 52.0758 63.9169 39.4242 63.9169Z" stroke="#01A966" stroke-width="7.59091" stroke-miterlimit="10" stroke-linecap="round" stroke-linejoin="round"/>
</svg>
